{"title":"Love Punjab 2016 Movies DVDScr XviD New Source with Sample ☻rDX☻","uid":13849670,"size":739970041,"categoryP":"video","categoryS":"movies","magnet":"?xt=urn:btih:158ab3866cfe38f1bb9ea02a5e2a14205b2c6889&amp;dn=Love+Punjab+2016+Movies+DVDScr+XviD+New+Source+with+Sample+%E2%98%BBrDX%E2%98%BB&amp;tr=udp%3A%2F%2Ftracker.leechers-paradise.org%3A6969&amp;tr=udp%3A%2F%2Fzer0day.ch%3A1337&amp;tr=udp%3A%2F%2Fopen.demonii.com%3A1337&amp;tr=udp%3A%2F%2Ftracker.coppersurfer.tk%3A6969&amp;tr=udp%3A%2F%2Fexodus.desync.com%3A6969","seeders":1,"leechers":0,"uploader":"basicssom","files":2,"time":1457977925,"description":"----------------------------------------------------------------\r\nLove Punjab 2016 Hindi Movies DVDScr XviD AAC New Source with Sample ~ ☻rDX☻\r\n\r\nSCREEN SHOTS &amp; POSTER:\r\n  \nhttp://mobileshosting.com/2016/3/LovePunjab/index.htm  \nhttp://mobileshosting.com/2016/3/LovePunjab/1.html  \nhttp://mobileshosting.com/2016/3/LovePunjab/2.html  \nhttp://mobileshosting.com/2016/3/LovePunjab/3.html  \nhttp://mobileshosting.com/2016/3/LovePunjab/4.html  \nhttp://mobileshosting.com/2016/3/LovePunjab/5.html  \nhttp://mobileshosting.com/2016/3/LovePunjab/6.html  \nhttp://mobileshosting.com/2016/3/LovePunjab/7.html  \nhttp://mobileshosting.com/2016/3/LovePunjab/8.html  \nhttp://mobileshosting.com/2016/3/LovePunjab/9.html  \nhttp://mobileshosting.com/2016/3/LovePunjab/10.html\r\n\r\nFormat                                   : Matroska\r\nFormat version                           : Version 4 / Version 2\r\nFile size                                : 694 MiB\r\nDuration                                 : 2h 10mn\r\nOverall bit rate mode                    : Variable\r\nOverall bit rate                         : 744 Kbps\r\nMovie name                               : Love Punjab 2016 Hindi Movies DVDScr XviD AAC New Source \r\n\r\n☻rDX☻\r\n\r\nVideo\r\nID                                       : 1\r\nFormat                                   : MPEG-4 Visual\r\nFormat profile                           : Advanced   \r\nFormat settings, BVOP                    : Yes\r\nFormat settings, QPel                    : Yes\r\nFormat settings, GMC                     : No warppoints\r\nFormat settings, Matrix                  : Default (H.263)\r\nCodec ID                                 : V_MS/VFW/FOURCC / XVID\r\nCodec ID/Hint                            : XviD\r\nDuration                                 : 2h 10mn\r\nBit rate                                 : 665 Kbps\r\nWidth                                    : 640 pixels\r\nHeight                                   : 284 pixels\r\nDisplay aspect ratio                     : 2.25:1\r\nFrame rate mode                          : Constant\r\nFrame rate                               : 25.000 fps\r\nColor space                              : YUV\r\nChroma subsampling                       : 4:2:0\r\nBit depth                                : 8 bits\r\nScan type                                : Progressive\r\nCompression mode                         : Lossy\r\nBits/(Pixel*Frame)                       : 0.146\r\nStream size                              : 620 MiB (89%)\r\nTitle                                    : ☻rDX☻\r\nWriting library                          : XviD 1.2.1 (UTC 2008-12-04)\r\nDefault                                  : Yes\r\nForced                                   : No\r\n\r\nAudio\r\nID                                       : 2\r\nFormat                                   : MPEG Audio\r\nFormat version                           : Version 1\r\nFormat profile                           : Layer 3\r\nCodec ID                                 : A_MPEG/L3\r\nCodec ID/Hint                            : MP3\r\nDuration                                 : 2h 4mn\r\nBit rate mode                            : Variable\r\nBit rate                                 : 64.0 Kbps\r\nChannel(s)                               : 1 channel\r\nSampling rate                            : 44.1 KHz\r\nCompression mode                         : Lossy\r\nStream size                              : 57.1 MiB (8%)\r\nTitle                                    : ☻rDX☻\r\nWriting library                          : LAME3.99r\r\nEncoding settings                        : -m m -V 4 -q 2 -lowpass 16.5 --abr 64\r\nDefault                                  : Yes\r\nForced                                   : No\r\n\r\nIMDB                                     \r\nna","torrent":{"xt":"urn:btih:158ab3866cfe38f1bb9ea02a5e2a14205b2c6889","amp;dn":"Love+Punjab+2016+Movies+DVDScr+XviD+New+Source+with+Sample+%E2%98%BBrDX%E2%98%BB","amp;tr":["udp%3A%2F%2Ftracker.leechers-paradise.org%3A6969","udp%3A%2F%2Fzer0day.ch%3A1337","udp%3A%2F%2Fopen.demonii.com%3A1337","udp%3A%2F%2Ftracker.coppersurfer.tk%3A6969","udp%3A%2F%2Fexodus.desync.com%3A6969"],"infoHash":"158ab3866cfe38f1bb9ea02a5e2a14205b2c6889","infoHashBuffer":{"type":"Buffer","data":[21,138,179,134,108,254,56,241,187,158,160,42,94,42,20,32,91,44,104,137]},"announce":[],"urlList":[]}}